<svg width="50" height="50" viewBox="0 0 50 50" fill="none" xmlns="http://www.w3.org/2000/svg">
<path d="M42.1875 0H7.8125C3.50469 0 0 3.50469 0 7.8125V11.7188C0 12.7975 0.874414 13.6719 1.95312 13.6719C3.03184 13.6719 3.90625 12.7975 3.90625 11.7188V7.8125C3.90625 5.65859 5.65859 3.90625 7.8125 3.90625H42.1875C44.3414 3.90625 46.0938 5.65859 46.0938 7.8125V42.1875C46.0938 44.3414 44.3414 46.0938 42.1875 46.0938H7.8125C5.65859 46.0938 3.90625 44.3414 3.90625 42.1875V38.2812C3.90625 37.2025 3.03184 36.3281 1.95312 36.3281C0.874414 36.3281 0 37.2025 0 38.2812V42.1875C0 46.4953 3.50469 50 7.8125 50H42.1875C46.4953 50 50 46.4953 50 42.1875V7.8125C50 3.50469 46.4953 0 42.1875 0Z" transform="translate(0 50) scale(1 -1)" fill="#151D26"/>
<path d="M10.6367 7.86791L3.33353 0.571423C2.57045 -0.190979 1.33383 -0.190393 0.571423 0.572693C-0.190979 1.33578 -0.190393 2.5724 0.572693 3.3348L7.87523 10.6306C8.63675 11.3921 8.63675 12.6312 7.87523 13.3927C7.8724 13.3955 7.86957 13.3985 7.86673 13.4013L0.563611 20.7954C-0.194397 21.5629 -0.18678 22.7995 0.580701 23.5576C0.961267 23.9335 1.45726 24.1211 1.95306 24.1211C2.45697 24.1211 2.96068 23.9273 3.34271 23.5405L10.6421 16.1501C12.922 13.8652 12.9203 10.1516 10.6367 7.86791Z" transform="translate(22.1679 37.0118) scale(1 -1)" fill="#151D26"/>
<path d="M22.7539 0H1.95312C0.874414 0 0 0.874414 0 1.95312C0 3.03184 0.874414 3.90625 1.95312 3.90625H22.7539C23.8326 3.90625 24.707 3.03184 24.707 1.95312C24.707 0.874414 23.8326 0 22.7539 0Z" transform="translate(0 26.9531) scale(1 -1)" fill="#151D26"/>
</svg>
