<svg width="70" height="70" viewBox="0 0 70 70" fill="none" xmlns="http://www.w3.org/2000/svg">
<path d="M3.64242 5.29128C3.86991 5.52001 4.16862 5.63307 4.4672 5.63307C4.76592 5.63307 5.0645 5.51987 5.29198 5.29128C5.74819 4.83627 5.74819 4.09662 5.29198 3.64162L1.99162 0.342174C1.53541 -0.114058 0.797031 -0.114058 0.342053 0.342174C-0.114018 0.797176 -0.114018 1.53683 0.342053 1.99183L3.64242 5.29128Z" transform="translate(3.75974 3.75854)" fill="black"/>
<path d="M1.16694 5.63417C1.46566 5.63417 1.76424 5.51987 1.99172 5.29237L5.29086 1.99183C5.74693 1.5356 5.74693 0.797176 5.29086 0.342174C4.83588 -0.114058 4.09736 -0.114058 3.64129 0.342174L0.342156 3.64271C-0.114052 4.09772 -0.114052 4.83737 0.342156 5.29237C0.569508 5.51987 0.868224 5.63417 1.16694 5.63417Z" transform="translate(18.6083 3.75854)" fill="black"/>
<path d="M1.16656 7.00003C1.81048 7.00003 2.33313 6.47735 2.33313 5.8334V1.16663C2.33313 0.522678 1.81048 0 1.16656 0C0.52265 0 -4.8284e-08 0.522678 -4.8284e-08 1.16663V5.83326C-0.00013676 6.47735 0.522513 7.00003 1.16656 7.00003Z" transform="translate(12.834)" fill="black"/>
<path d="M7.00088 1.16663C7.00088 0.522678 6.47823 -3.75511e-07 5.83432 -3.75511e-07H1.16656C0.52265 -3.75511e-07 0 0.522678 0 1.16663C0 1.81057 0.52265 2.33325 1.16656 2.33325H5.83418C6.47823 2.33325 7.00088 1.81057 7.00088 1.16663Z" transform="translate(0 12.8335)" fill="black"/>
<path d="M3.64238 0.342191L0.342156 3.64259C-0.114052 4.09883 -0.114052 4.83725 0.342156 5.29225C0.569645 5.52084 0.86836 5.63405 1.16694 5.63405C1.46566 5.63405 1.76423 5.52084 1.99172 5.29225L5.29209 1.99171C5.74707 1.53671 5.74707 0.798151 5.29209 0.342055C4.83588 -0.114041 4.0975 -0.114042 3.64238 0.342191Z" transform="translate(3.75851 18.6082)" fill="black"/>
<path d="M60.5816 44.7263C59.3101 41.5588 59.0242 39.2453 58.7465 37.0088C58.3721 33.9929 57.9859 30.8733 55.2187 26.0795L47.6357 12.9439C46.4143 10.8299 43.3775 10.0132 41.2601 11.2359C40.552 11.6453 39.9616 12.2591 39.5557 12.9928C38.7706 11.8623 37.625 11.055 36.2811 10.6945C34.7761 10.2907 33.2048 10.4996 31.855 11.2766C30.5717 12.0175 29.6769 13.1759 29.2418 14.4814C27.4172 12.9741 24.7713 12.6707 22.6049 13.9238C21.3438 14.6518 20.4176 15.7986 19.9742 17.1752L9.93448 3.05526C6.98068 -0.970982 4.07582 -0.151897 2.60467 0.698497C1.25026 1.48012 0.356574 2.72495 0.0860207 4.20548C-0.162522 5.56693 0.130316 7.06032 0.928304 8.43927L17.0718 34.6696C17.4089 35.2179 18.1276 35.3894 18.6758 35.0522C19.2253 34.7138 19.3969 33.9963 19.0585 33.4481L2.93127 7.24475C2.42845 6.37208 2.23254 5.44225 2.38183 4.6233C2.52879 3.81706 3.00947 3.15917 3.77123 2.71935C4.2962 2.41597 5.89218 1.49202 8.04334 4.4215L20.5308 21.9857C20.8913 22.492 21.5866 22.6273 22.1127 22.2914C22.6364 21.9542 22.8033 21.2648 22.4918 20.7257C22.0239 19.916 21.9003 18.9734 22.1418 18.0692C22.3832 17.1662 22.963 16.4114 23.7715 15.9447C25.4432 14.981 27.5899 15.5539 28.5534 17.2258L29.7153 19.2395C29.7177 19.2419 29.7189 19.2442 29.72 19.2465C30.0419 19.8053 30.756 19.9944 31.3136 19.6735C31.8713 19.3515 32.0626 18.6387 31.7406 18.0799C30.7758 16.4081 31.3497 14.2636 33.0216 13.2988C33.8301 12.831 34.7785 12.7074 35.6768 12.9488C36.5809 13.1915 37.3346 13.7701 37.8012 14.5799L39.5475 17.6038C39.5488 17.6062 39.5499 17.6085 39.5511 17.6108C39.8743 18.1685 40.5871 18.3587 41.1458 18.0378C41.7035 17.7158 41.8947 17.003 41.5728 16.444C41.2776 15.9342 41.2041 15.289 41.3721 14.6753C41.5401 14.064 41.9239 13.5471 42.4267 13.2566C43.4486 12.6662 45.0271 13.0909 45.6151 14.1105L53.1981 27.2461C55.7296 31.6293 56.0703 34.3826 56.4308 37.2958C56.6992 39.4565 56.9745 41.6837 58.0536 44.6481L35.4843 57.6798C31.5529 53.446 25.5436 49.0033 17.6038 44.4637C16.7451 43.9725 15.8935 43.4977 15.0571 43.0416C12.9129 41.8726 11.3985 39.5485 11.3717 37.3914C11.3601 36.4114 11.668 35.0569 13.2033 34.1713C13.762 33.8481 13.9534 33.1342 13.6314 32.5765C13.3083 32.0188 12.5931 31.8276 12.0367 32.1495C10.0768 33.2824 9.01167 35.1537 9.0397 37.4194C9.0747 40.4283 11.0451 43.5106 13.9407 45.0914C14.7631 45.5394 15.6008 46.006 16.4454 46.4891C24.607 51.1557 30.6395 55.6789 34.375 59.9314C34.6025 60.1904 34.9245 60.3281 35.2512 60.3281C35.4507 60.3281 35.6525 60.2768 35.8346 60.1718L60.0825 46.1717C60.5852 45.8813 60.7975 45.2654 60.5816 44.7263Z" transform="translate(9.33438 9.672)" fill="black"/>
</svg>
