<svg width="676" height="264" viewBox="0 0 676 264" fill="none" xmlns="http://www.w3.org/2000/svg">
<path d="M30.346 14.92C31.274 14.92 32.01 15.208 32.554 15.784C33.098 16.328 33.37 17.064 33.37 17.992V46.168C33.37 47.096 33.082 47.848 32.506 48.424C31.962 49 31.242 49.288 30.346 49.288C29.418 49.288 28.682 49 28.138 48.424C27.594 47.848 27.322 47.096 27.322 46.168V34.312H9.994V46.168C9.994 47.096 9.706 47.848 9.13 48.424C8.586 49 7.85 49.288 6.922 49.288C6.026 49.288 5.29 49 4.714 48.424C4.17 47.848 3.898 47.096 3.898 46.168V17.992C3.898 17.064 4.17 16.328 4.714 15.784C5.258 15.208 5.994 14.92 6.922 14.92C7.85 14.92 8.586 15.208 9.13 15.784C9.706 16.328 9.994 17.064 9.994 17.992V29.32H27.322V17.992C27.322 17.064 27.594 16.328 28.138 15.784C28.682 15.208 29.418 14.92 30.346 14.92ZM50.296 24.952C53.56 24.952 55.976 25.768 57.544 27.4C59.144 29 59.944 31.448 59.944 34.744V46.456C59.944 47.32 59.688 48.008 59.176 48.52C58.664 49 57.96 49.24 57.064 49.24C56.232 49.24 55.544 48.984 55 48.472C54.488 47.96 54.232 47.288 54.232 46.456V45.4C53.688 46.648 52.824 47.624 51.64 48.328C50.488 49.032 49.144 49.384 47.608 49.384C46.04 49.384 44.616 49.064 43.336 48.424C42.056 47.784 41.048 46.904 40.312 45.784C39.576 44.664 39.208 43.416 39.208 42.04C39.208 40.312 39.64 38.952 40.504 37.96C41.4 36.968 42.84 36.248 44.824 35.8C46.808 35.352 49.544 35.128 53.032 35.128H54.232V34.024C54.232 32.456 53.896 31.32 53.224 30.616C52.552 29.88 51.464 29.512 49.96 29.512C49.032 29.512 48.088 29.656 47.128 29.944C46.168 30.2 45.032 30.584 43.72 31.096C42.888 31.512 42.28 31.72 41.896 31.72C41.32 31.72 40.84 31.512 40.456 31.096C40.104 30.68 39.928 30.136 39.928 29.464C39.928 28.92 40.056 28.456 40.312 28.072C40.6 27.656 41.064 27.272 41.704 26.92C42.824 26.312 44.152 25.832 45.688 25.48C47.256 25.128 48.792 24.952 50.296 24.952ZM48.808 45.064C50.408 45.064 51.704 44.536 52.696 43.48C53.72 42.392 54.232 41 54.232 39.304V38.296H53.368C51.224 38.296 49.56 38.392 48.376 38.584C47.192 38.776 46.344 39.112 45.832 39.592C45.32 40.072 45.064 40.728 45.064 41.56C45.064 42.584 45.416 43.432 46.12 44.104C46.856 44.744 47.752 45.064 48.808 45.064ZM82.4099 26.776C82.6659 26.2 83.0019 25.784 83.4179 25.528C83.8659 25.24 84.3459 25.096 84.8579 25.096C85.5939 25.096 86.2499 25.352 86.8259 25.864C87.4339 26.344 87.7379 26.952 87.7379 27.688C87.7379 28.04 87.6419 28.408 87.4499 28.792L74.3459 56.248C73.8019 57.336 72.9539 57.88 71.8019 57.88C71.0659 57.88 70.4099 57.64 69.8339 57.16C69.2899 56.712 69.0179 56.136 69.0179 55.432C69.0179 55.08 69.1139 54.68 69.3059 54.232L72.5699 47.368L63.6419 28.792C63.4819 28.472 63.4019 28.104 63.4019 27.688C63.4019 26.952 63.7059 26.328 64.3139 25.816C64.9539 25.304 65.6739 25.048 66.4739 25.048C67.0179 25.048 67.5139 25.192 67.9619 25.48C68.4099 25.736 68.7619 26.152 69.0179 26.728L75.7379 41.56L82.4099 26.776ZM104.796 24.952C106.812 24.952 108.604 25.464 110.172 26.488C111.772 27.512 113.004 28.968 113.868 30.856C114.764 32.712 115.212 34.856 115.212 37.288C115.212 39.72 114.764 41.848 113.868 43.672C113.004 45.496 111.788 46.904 110.22 47.896C108.652 48.888 106.844 49.384 104.796 49.384C103.132 49.384 101.644 49.032 100.332 48.328C99.0195 47.624 98.0115 46.648 97.3075 45.4V55.192C97.3075 56.024 97.0355 56.68 96.4915 57.16C95.9475 57.64 95.2275 57.88 94.3315 57.88C93.4355 57.88 92.6995 57.624 92.1235 57.112C91.5795 56.6 91.3075 55.928 91.3075 55.096V27.88C91.3075 27.016 91.5635 26.328 92.0755 25.816C92.6195 25.304 93.3395 25.048 94.2355 25.048C95.1315 25.048 95.8515 25.304 96.3955 25.816C96.9395 26.328 97.2115 27.016 97.2115 27.88V29.08C97.9155 27.768 98.9235 26.76 100.236 26.056C101.58 25.32 103.1 24.952 104.796 24.952ZM103.212 44.728C105.1 44.728 106.572 44.088 107.628 42.808C108.684 41.496 109.212 39.656 109.212 37.288C109.212 34.856 108.684 32.968 107.628 31.624C106.572 30.28 105.1 29.608 103.212 29.608C101.292 29.608 99.8035 30.264 98.7475 31.576C97.7235 32.888 97.2115 34.76 97.2115 37.192C97.2115 39.592 97.7235 41.448 98.7475 42.76C99.8035 44.072 101.292 44.728 103.212 44.728ZM141.016 44.344C141.656 44.952 141.976 45.64 141.976 46.408C141.976 47.144 141.704 47.8 141.16 48.376C140.648 48.952 140.04 49.24 139.336 49.24C138.632 49.24 137.976 48.952 137.368 48.376L126.136 38.2V46.408C126.136 47.336 125.848 48.04 125.272 48.52C124.696 49 123.976 49.24 123.112 49.24C122.248 49.24 121.528 49 120.952 48.52C120.408 48.04 120.136 47.336 120.136 46.408V17.752C120.136 16.824 120.408 16.12 120.952 15.64C121.528 15.16 122.248 14.92 123.112 14.92C123.976 14.92 124.696 15.16 125.272 15.64C125.848 16.12 126.136 16.824 126.136 17.752V35.8L136.408 25.96C136.984 25.384 137.64 25.096 138.376 25.096C139.112 25.096 139.752 25.368 140.296 25.912C140.84 26.456 141.112 27.096 141.112 27.832C141.112 28.568 140.808 29.24 140.2 29.848L132.664 36.856L141.016 44.344Z" transform="scale(4)" fill="white"/>
<path fill-rule="evenodd" clip-rule="evenodd" d="M24 24.6473C24 31.4693 18.6273 37 12.0001 37C5.37268 37 0 31.4697 0 24.6473C0 15.6593 12.0001 0 12.0001 0C12.0001 0 24 16.046 24 24.6473ZM12 31.3696C15.5345 31.3696 18.4 28.4886 18.4 24.9348C18.4 21.381 15.5345 18.5 12 18.5C8.46533 18.5 5.59998 21.381 5.59998 24.9348C5.59998 28.4886 8.46533 31.3696 12 31.3696Z" transform="translate(580 236) scale(4 -4)" fill="white"/>
</svg>
