<svg width="169" height="66" viewBox="0 0 169 66" fill="none" xmlns="http://www.w3.org/2000/svg">
<path d="M30.346 14.92C31.274 14.92 32.01 15.208 32.554 15.784C33.098 16.328 33.37 17.064 33.37 17.992V46.168C33.37 47.096 33.082 47.848 32.506 48.424C31.962 49 31.242 49.288 30.346 49.288C29.418 49.288 28.682 49 28.138 48.424C27.594 47.848 27.322 47.096 27.322 46.168V34.312H9.994V46.168C9.994 47.096 9.706 47.848 9.13 48.424C8.586 49 7.85 49.288 6.922 49.288C6.026 49.288 5.29 49 4.714 48.424C4.17 47.848 3.898 47.096 3.898 46.168V17.992C3.898 17.064 4.17 16.328 4.714 15.784C5.258 15.208 5.994 14.92 6.922 14.92C7.85 14.92 8.586 15.208 9.13 15.784C9.706 16.328 9.994 17.064 9.994 17.992V29.32H27.322V17.992C27.322 17.064 27.594 16.328 28.138 15.784C28.682 15.208 29.418 14.92 30.346 14.92ZM50.296 24.952C53.56 24.952 55.976 25.768 57.544 27.4C59.144 29 59.944 31.448 59.944 34.744V46.456C59.944 47.32 59.688 48.008 59.176 48.52C58.664 49 57.96 49.24 57.064 49.24C56.232 49.24 55.544 48.984 55 48.472C54.488 47.96 54.232 47.288 54.232 46.456V45.4C53.688 46.648 52.824 47.624 51.64 48.328C50.488 49.032 49.144 49.384 47.608 49.384C46.04 49.384 44.616 49.064 43.336 48.424C42.056 47.784 41.048 46.904 40.312 45.784C39.576 44.664 39.208 43.416 39.208 42.04C39.208 40.312 39.64 38.952 40.504 37.96C41.4 36.968 42.84 36.248 44.824 35.8C46.808 35.352 49.544 35.128 53.032 35.128H54.232V34.024C54.232 32.456 53.896 31.32 53.224 30.616C52.552 29.88 51.464 29.512 49.96 29.512C49.032 29.512 48.088 29.656 47.128 29.944C46.168 30.2 45.032 30.584 43.72 31.096C42.888 31.512 42.28 31.72 41.896 31.72C41.32 31.72 40.84 31.512 40.456 31.096C40.104 30.68 39.928 30.136 39.928 29.464C39.928 28.92 40.056 28.456 40.312 28.072C40.6 27.656 41.064 27.272 41.704 26.92C42.824 26.312 44.152 25.832 45.688 25.48C47.256 25.128 48.792 24.952 50.296 24.952ZM48.808 45.064C50.408 45.064 51.704 44.536 52.696 43.48C53.72 42.392 54.232 41 54.232 39.304V38.296H53.368C51.224 38.296 49.56 38.392 48.376 38.584C47.192 38.776 46.344 39.112 45.832 39.592C45.32 40.072 45.064 40.728 45.064 41.56C45.064 42.584 45.416 43.432 46.12 44.104C46.856 44.744 47.752 45.064 48.808 45.064ZM82.4099 26.776C82.6659 26.2 83.0019 25.784 83.4179 25.528C83.8659 25.24 84.3459 25.096 84.8579 25.096C85.5939 25.096 86.2499 25.352 86.8259 25.864C87.4339 26.344 87.7379 26.952 87.7379 27.688C87.7379 28.04 87.6419 28.408 87.4499 28.792L74.3459 56.248C73.8019 57.336 72.9539 57.88 71.8019 57.88C71.0659 57.88 70.4099 57.64 69.8339 57.16C69.2899 56.712 69.0179 56.136 69.0179 55.432C69.0179 55.08 69.1139 54.68 69.3059 54.232L72.5699 47.368L63.6419 28.792C63.4819 28.472 63.4019 28.104 63.4019 27.688C63.4019 26.952 63.7059 26.328 64.3139 25.816C64.9539 25.304 65.6739 25.048 66.4739 25.048C67.0179 25.048 67.5139 25.192 67.9619 25.48C68.4099 25.736 68.7619 26.152 69.0179 26.728L75.7379 41.56L82.4099 26.776ZM112.188 44.344C112.828 44.952 113.148 45.64 113.148 46.408C113.148 47.144 112.876 47.8 112.332 48.376C111.82 48.952 111.212 49.24 110.508 49.24C109.804 49.24 109.148 48.952 108.54 48.376L97.3075 38.2V46.408C97.3075 47.336 97.0195 48.04 96.4435 48.52C95.8675 49 95.1475 49.24 94.2835 49.24C93.4195 49.24 92.6995 49 92.1235 48.52C91.5795 48.04 91.3075 47.336 91.3075 46.408V17.752C91.3075 16.824 91.5795 16.12 92.1235 15.64C92.6995 15.16 93.4195 14.92 94.2835 14.92C95.1475 14.92 95.8675 15.16 96.4435 15.64C97.0195 16.12 97.3075 16.824 97.3075 17.752V35.8L107.58 25.96C108.156 25.384 108.812 25.096 109.548 25.096C110.284 25.096 110.924 25.368 111.468 25.912C112.012 26.456 112.284 27.096 112.284 27.832C112.284 28.568 111.98 29.24 111.372 29.848L103.836 36.856L112.188 44.344ZM130.53 24.952C132.546 24.952 134.338 25.464 135.906 26.488C137.506 27.512 138.738 28.968 139.602 30.856C140.498 32.712 140.946 34.856 140.946 37.288C140.946 39.72 140.498 41.848 139.602 43.672C138.738 45.496 137.522 46.904 135.954 47.896C134.386 48.888 132.578 49.384 130.53 49.384C128.866 49.384 127.378 49.032 126.066 48.328C124.754 47.624 123.746 46.648 123.042 45.4V55.192C123.042 56.024 122.77 56.68 122.226 57.16C121.682 57.64 120.962 57.88 120.066 57.88C119.17 57.88 118.434 57.624 117.858 57.112C117.314 56.6 117.042 55.928 117.042 55.096V27.88C117.042 27.016 117.298 26.328 117.81 25.816C118.354 25.304 119.074 25.048 119.97 25.048C120.866 25.048 121.586 25.304 122.13 25.816C122.674 26.328 122.946 27.016 122.946 27.88V29.08C123.65 27.768 124.658 26.76 125.97 26.056C127.314 25.32 128.834 24.952 130.53 24.952ZM128.946 44.728C130.834 44.728 132.306 44.088 133.362 42.808C134.418 41.496 134.946 39.656 134.946 37.288C134.946 34.856 134.418 32.968 133.362 31.624C132.306 30.28 130.834 29.608 128.946 29.608C127.026 29.608 125.538 30.264 124.482 31.576C123.458 32.888 122.946 34.76 122.946 37.192C122.946 39.592 123.458 41.448 124.482 42.76C125.538 44.072 127.026 44.728 128.946 44.728Z" fill="#151D26"/>
<path fill-rule="evenodd" clip-rule="evenodd" d="M24 24.6473C24 31.4693 18.6273 37 12.0001 37C5.37268 37 0 31.4697 0 24.6473C0 15.6593 12.0001 0 12.0001 0C12.0001 0 24 16.0459 24 24.6473ZM12 31.3696C15.5345 31.3696 18.4 28.4886 18.4 24.9348C18.4 21.381 15.5345 18.5 12 18.5C8.46533 18.5 5.59998 21.381 5.59998 24.9348C5.59998 28.4886 8.46533 31.3696 12 31.3696Z" transform="translate(145 59) scale(1 -1)" fill="#151D26"/>
</svg>
