<svg width="56" height="56" viewBox="0 0 56 56" fill="none" xmlns="http://www.w3.org/2000/svg">
<path d="M52.9284 17.829L37.3097 12.1497C36.2077 11.7492 35.4667 10.6915 35.4667 9.51837V8.4V0.933333C35.4667 0.4179 35.0492 0 34.5333 0H23.3333C22.8174 0 22.4 0.4179 22.4 0.933333V8.4V19.7122L18.6667 15.512V10.2667C18.6667 9.75123 18.2492 9.33333 17.7333 9.33333H8.4C7.8841 9.33333 7.46667 9.75123 7.46667 10.2667V15.512L1.17938 22.5855C0.418367 23.4404 0 24.5419 0 25.6863V55.0667C0 55.5821 0.417433 56 0.933333 56H25.2H55.0667C55.5826 56 56 55.5821 56 55.0667V22.215C56 20.2599 54.7659 18.4976 52.9284 17.829ZM31.7333 1.86667H33.6V7.46667H31.7333V1.86667ZM28 1.86667H29.8667V7.46667H28V1.86667ZM24.2667 1.86667H26.1333V7.46667H24.2667V1.86667ZM9.33333 11.2H16.8V14.9333H9.33333V11.2ZM24.2667 54.1333H1.86667V25.6863C1.86667 24.9995 2.1182 24.3391 2.57402 23.826L8.8193 16.8H17.3141L23.5594 23.826C24.0151 24.3391 24.2668 24.9996 24.2668 25.6863V54.1333H24.2667ZM54.1333 54.1333H26.1333V25.6863C26.1333 24.5419 25.715 23.4404 24.954 22.5855L24.2667 21.8122V9.33333H33.6V9.51837C33.6 11.4735 34.8341 13.2357 36.6716 13.9043L52.2904 19.5837C53.3923 19.9843 54.1333 21.042 54.1333 22.2151V54.1333Z" fill="black"/>
<path d="M20.5333 0H2.8C1.25603 0 0 1.25603 0 2.8V23.3333C0 24.8773 1.25603 26.1333 2.8 26.1333H20.5333C22.0773 26.1333 23.3333 24.8773 23.3333 23.3333V2.8C23.3333 1.25603 22.0773 0 20.5333 0ZM21.4667 23.3333C21.4667 23.8478 21.0483 24.2667 20.5333 24.2667H7.28233C6.18485 22.5913 5.6 20.6674 5.6 18.6667C5.6 13.0056 10.2057 8.4 15.8667 8.4C17.8675 8.4 19.7919 8.98485 21.4667 10.0824V23.3333ZM21.4667 7.91595C19.7412 7.01073 17.8356 6.53333 15.8667 6.53333C9.17653 6.53333 3.73333 11.9761 3.73333 18.6667C3.73333 20.6352 4.2105 22.541 5.11607 24.2667H2.8C2.28503 24.2667 1.86667 23.8478 1.86667 23.3333V2.8C1.86667 2.2855 2.28503 1.86667 2.8 1.86667H20.5333C21.0483 1.86667 21.4667 2.2855 21.4667 2.8V7.91595Z" transform="translate(28 23.3333)" fill="black"/>
<path d="M17.7333 0H0.933333C0.417433 0 0 0.4179 0 0.933333V23.3333C0 23.8488 0.417433 24.2667 0.933333 24.2667H17.7333C18.2492 24.2667 18.6667 23.8488 18.6667 23.3333V0.933333C18.6667 0.4179 18.2492 0 17.7333 0ZM16.8 22.4H1.86667V1.86667H16.8V22.4Z" transform="translate(3.73334 27.0667)" fill="black"/>
<path d="M3.73333 0C1.6744 0 0 1.67475 0 3.73333C0 5.79192 1.6744 7.46667 3.73333 7.46667C5.79227 7.46667 7.46667 5.79192 7.46667 3.73333C7.46667 1.67475 5.79227 0 3.73333 0ZM3.73333 5.6C2.70433 5.6 1.86667 4.7628 1.86667 3.73333C1.86667 2.70387 2.70433 1.86667 3.73333 1.86667C4.76233 1.86667 5.6 2.70387 5.6 3.73333C5.6 4.7628 4.76233 5.6 3.73333 5.6Z" transform="translate(40.1333 38.2667)" fill="black"/>
<path d="M11.2 0H0V1.86667H11.2V0Z" transform="translate(7.46667 42)" fill="black"/>
</svg>
