<svg width="100" height="49" viewBox="0 0 100 49" fill="none" xmlns="http://www.w3.org/2000/svg">
<path d="M100 15.8692V48.0534C100 48.5759 99.5774 49 99.0566 49H0.943396C0.422642 49 0 48.5759 0 48.0534V16.8158C0 16.2933 0.422642 15.8692 0.943396 15.8692C1.46415 15.8692 1.88679 16.2933 1.88679 16.8158V47.1068H98.1132V16.8158H43.3962C42.8755 16.8158 42.4528 16.3917 42.4528 15.8692C42.4528 15.3467 42.8755 14.9226 43.3962 14.9226H99.0566C99.5774 14.9226 100 15.3467 100 15.8692ZM29.3434 34.129L38.017 25.5415C38.2887 25.2745 38.6925 25.1969 39.0434 25.3427C39.3943 25.4904 39.6226 25.833 39.6226 26.2155V34.8011C39.6226 35.3236 39.2 35.7477 38.6792 35.7477H30.0057C29.6226 35.7477 29.2774 35.5148 29.134 35.1589C28.9868 34.8049 29.0698 34.3959 29.3434 34.129ZM32.3057 33.8545H37.7358V28.4797L32.3057 33.8545ZM4.1566 9.64817C3.97925 9.47021 3.88113 9.22977 3.88113 8.97798C3.88113 8.72618 3.98113 8.48575 4.1566 8.30779L12.1623 0.276879C12.5302 -0.0922931 13.1283 -0.0922931 13.4962 0.276879L16.1642 2.95385C16.3415 3.13181 16.4396 3.37224 16.4396 3.62404C16.4396 3.87583 16.3396 4.11627 16.1642 4.29423L8.15849 12.3251C7.97358 12.5107 7.73208 12.6015 7.49057 12.6015C7.24906 12.6015 7.00755 12.5088 6.82264 12.3251L4.1566 9.64817ZM6.1566 8.97987L7.49057 10.3184L14.1623 3.62593L12.8283 2.28745L6.1566 8.97987ZM9.49057 13.6655L17.4962 5.63271C17.8509 5.27679 18.4774 5.27679 18.8302 5.63271L36.1736 23.0349C36.5415 23.4041 36.5415 24.0042 36.1736 24.3734L28.1679 32.4062C27.983 32.5917 27.7415 32.6826 27.5 32.6826C27.2585 32.6826 27.017 32.5898 26.8321 32.4062L9.48868 15.004C9.31132 14.826 9.21321 14.5856 9.21321 14.3338C9.21321 14.082 9.31509 13.8435 9.49057 13.6655ZM11.4925 14.3357L27.5019 30.3994L34.1736 23.7051L18.1642 7.64138L11.4925 14.3357Z" fill="#151D26"/>
</svg>
