<svg width="70" height="48" viewBox="0 0 70 48" fill="none" xmlns="http://www.w3.org/2000/svg">
<path d="M22.6258 1.04949H1.02759C1.02153 1.04949 1.01834 1.04846 1.01623 1.04757C1.01346 1.0464 1.01019 1.04436 1.0071 1.04127C1.004 1.03818 1.00224 1.03521 1.00137 1.03317C1.00079 1.03179 1 1.02962 1 1.02475C1 1.01987 1.00079 1.0177 1.00137 1.01632C1.00224 1.01428 1.004 1.01131 1.0071 1.00822C1.01019 1.00514 1.01346 1.00309 1.01623 1.00192C1.01834 1.00103 1.02153 1 1.02759 1H22.6258C22.6319 1 22.6351 1.00103 22.6371 1.00191C22.6399 1.00306 22.6431 1.00509 22.6462 1.00816C22.6493 1.01122 22.651 1.01418 22.6519 1.01624C22.6525 1.01762 22.6533 1.01983 22.6533 1.02475C22.6533 1.02966 22.6525 1.03187 22.6519 1.03325C22.651 1.03531 22.6493 1.03827 22.6462 1.04134C22.6431 1.0444 22.6399 1.04643 22.6371 1.04758C22.6351 1.04846 22.6319 1.04949 22.6258 1.04949Z" transform="translate(20.5636 2.72009)" stroke="black" stroke-width="2"/>
<path d="M22.6257 1.04935H1.02759C1.02153 1.04935 1.01834 1.04831 1.01623 1.04743C1.01346 1.04626 1.01019 1.04421 1.00709 1.04112C1.004 1.03804 1.00224 1.03507 1.00137 1.03302C1.00079 1.03165 1 1.02947 1 1.0246C1 1.01973 1.00079 1.01758 1.00136 1.01624C1.00221 1.01423 1.00395 1.01129 1.00703 1.00822C1.0101 1.00515 1.01337 1.00311 1.01614 1.00194C1.01826 1.00104 1.02149 1 1.02759 1H22.6257C22.6318 1 22.635 1.00104 22.6371 1.00194C22.6399 1.00311 22.6432 1.00515 22.6463 1.00822C22.6493 1.01129 22.6511 1.01423 22.6519 1.01624C22.6525 1.01758 22.6533 1.01973 22.6533 1.0246C22.6533 1.02947 22.6525 1.03165 22.6519 1.03302C22.6511 1.03507 22.6493 1.03804 22.6462 1.04112C22.6431 1.04421 22.6398 1.04626 22.6371 1.04743C22.635 1.04831 22.6318 1.04935 22.6257 1.04935Z" transform="translate(1.24729 12.7395)" stroke="black" stroke-width="2"/>
<path d="M1.02759 1.04949C1.02157 1.04949 1.01841 1.04847 1.01632 1.04758C1.01356 1.04642 1.01028 1.04437 1.00716 1.04127C1.00405 1.03816 1.00227 1.03516 1.00139 1.03308C1.00079 1.03168 1 1.02948 1 1.0246C1 1.01973 1.00079 1.01758 1.00136 1.01624C1.00221 1.01423 1.00395 1.01129 1.00703 1.00822C1.0101 1.00515 1.01337 1.00311 1.01614 1.00194C1.01826 1.00104 1.02149 1 1.02759 1H22.6257C22.6318 1 22.635 1.00104 22.6371 1.00194C22.6399 1.00311 22.6432 1.00515 22.6463 1.00822C22.6493 1.01129 22.6511 1.01423 22.6519 1.01624C22.6525 1.01758 22.6533 1.01973 22.6533 1.0246C22.6533 1.02948 22.6525 1.03168 22.6519 1.03308C22.651 1.03516 22.6492 1.03816 22.6461 1.04126C22.643 1.04437 22.6397 1.04642 22.637 1.04758C22.6349 1.04847 22.6317 1.04949 22.6257 1.04949H1.02759Z" transform="translate(8.07294 24.3076)" stroke="black" stroke-width="2"/>
<path d="M1.02759 1H20.4336C20.4397 1 20.4429 1.00104 20.4451 1.00194C20.4478 1.00311 20.4511 1.00515 20.4542 1.00822C20.4573 1.01129 20.459 1.01423 20.4598 1.01624C20.4604 1.01758 20.4612 1.01973 20.4612 1.0246C20.4612 1.02947 20.4604 1.03165 20.4598 1.03302C20.459 1.03507 20.4572 1.03804 20.4541 1.04112C20.451 1.04421 20.4477 1.04626 20.445 1.04742C20.4429 1.04831 20.4397 1.04935 20.4336 1.04935H1.02759C1.02153 1.04935 1.01834 1.04831 1.01623 1.04742C1.01346 1.04626 1.01019 1.04421 1.00709 1.04112C1.004 1.03804 1.00224 1.03507 1.00137 1.03302C1.00079 1.03165 1 1.02947 1 1.0246C1 1.01973 1.00079 1.01758 1.00136 1.01624C1.00221 1.01423 1.00395 1.01129 1.00703 1.00822C1.0101 1.00515 1.01337 1.00311 1.01614 1.00194C1.01826 1.00104 1.02149 1 1.02759 1Z" transform="translate(0 37.2418)" stroke="black" stroke-width="2"/>
<path d="M0.999998 5.59715V5.59711C0.999998 3.06114 3.06278 1 5.61352 1C8.16324 1 10.2259 3.06085 10.2259 5.59711C10.2259 8.13341 8.16334 10.1944 5.61352 10.1944C3.06263 10.1944 0.99988 8.13321 0.999998 5.59715Z" transform="translate(49.738)" stroke="black" stroke-width="2"/>
<path d="M12.2015 8.99637L12.2016 8.9962C13.5847 7.06479 15.2064 5.75066 17.034 5.09786C18.8668 4.44319 20.8152 4.48653 22.7867 5.11361L23.9713 5.4904L23.3495 6.5668C21.5248 9.72527 19.9275 12.8678 17.6543 17.3718L17.6543 17.3719C16.4425 19.7722 14.4844 21.9683 12.1235 23.1923C9.72761 24.4343 6.90075 24.6723 4.15047 23.0684C2.94726 22.3671 1.86555 22.8468 1.32212 23.7081C1.04627 24.1453 0.944497 24.6382 1.02908 25.0754C1.109 25.4885 1.37197 25.944 2.01094 26.3164L1.5074 27.1804L2.01094 26.3164C8.10854 29.8702 15.2877 27.6991 18.9565 23.0555L19.4745 22.3999L20.2117 22.793C20.3097 22.8452 20.4068 22.889 20.5098 22.9249C22.2256 23.5212 24.1595 24.592 25.7972 25.6204C27.4425 26.6536 28.8538 27.6857 29.5354 28.2451L29.5355 28.2452C30.0089 28.6339 30.4649 29.3116 30.8712 30.0029C31.2997 30.7318 31.7507 31.615 32.193 32.53C32.6365 33.4474 33.0797 34.4145 33.4907 35.3135L33.5554 35.4552C33.9437 36.3046 34.299 37.0822 34.6036 37.7094L34.6036 37.7095C34.8773 38.2733 35.267 38.5428 35.6641 38.6512C36.0866 38.7665 36.5848 38.7149 37.0412 38.5021C37.4981 38.2891 37.8457 37.9464 38.0152 37.5642C38.1731 37.2084 38.2096 36.7505 37.9341 36.1828L37.9341 36.1827C37.6096 35.5137 37.2621 34.7563 36.8913 33.9478C36.3593 32.788 35.779 31.5229 35.149 30.263C34.6293 29.2238 34.1058 28.2525 33.6009 27.4546C33.0827 26.6357 32.6352 26.0829 32.286 25.8053C30.7252 24.5646 27.7651 22.3138 25.2943 21.0544L24.3977 20.5974L24.8604 19.7037C26.6053 16.3332 28.4236 12.9964 30.3389 9.71508L30.7379 9.03159L31.4948 9.26285C37.102 10.9761 42.4507 9.00804 46.3486 3.56305L46.3487 3.56292C46.7159 3.05019 46.7301 2.63723 46.6347 2.32519C46.5284 1.97781 46.2426 1.62371 45.802 1.36913C44.9051 0.850831 43.762 0.926304 43.0817 1.87597C41.3548 4.28822 39.258 5.73256 36.8774 6.13589C34.5127 6.53653 32.0326 5.882 29.5774 4.42856C29.4336 4.34358 29.0205 4.11334 28.5828 3.86946L28.5647 3.85934C28.1505 3.62854 27.7156 3.38627 27.5476 3.28673L12.2015 8.99637ZM12.2015 8.99637C11.5222 9.94554 10.3794 10.0214 9.48179 9.5028M12.2015 8.99637L9.48179 9.5028M17.3788 1.27372C14.2394 1.96519 11.3205 3.97501 8.93354 7.30825L17.3788 1.27372ZM17.3788 1.27372C20.5152 0.582931 23.9912 1.18143 27.5472 3.2865L17.3788 1.27372ZM9.48179 9.5028C9.04097 9.24812 8.75483 8.89383 8.64833 8.54619M9.48179 9.5028L8.64833 8.54619M8.64833 8.54619C8.55268 8.23396 8.56677 7.82108 8.93329 7.3086L8.64833 8.54619Z" transform="translate(22.3152 8.2887)" stroke="black" stroke-width="2"/>
</svg>
