<svg width="74" height="53" viewBox="0 0 74 53" fill="none" xmlns="http://www.w3.org/2000/svg">
<path d="M7.40002 0C3.31888 0 0 3.31678 0 7.39534C0 11.4739 3.31888 14.7907 7.40002 14.7907C11.4812 14.7907 14.8 11.4739 14.8 7.39534C14.8 3.31678 11.481 0 7.40002 0ZM7.40002 12.3255C4.67921 12.3255 2.46672 10.1143 2.46672 7.39534C2.46672 4.67625 4.67935 2.46516 7.40002 2.46516C10.1207 2.46516 12.3333 4.6764 12.3333 7.39534C12.3333 10.1143 10.1207 12.3255 7.40002 12.3255Z" transform="translate(9.86676 38.2094)" fill="black"/>
<path d="M7.40002 0C3.31888 0 0 3.31678 0 7.39534C0 11.4739 3.31888 14.7907 7.40002 14.7907C11.4812 14.7907 14.8 11.4739 14.8 7.39534C14.8 3.31678 11.4812 0 7.40002 0ZM7.40002 12.3255C4.67921 12.3255 2.46672 10.1143 2.46672 7.39534C2.46672 4.67625 4.67936 2.46516 7.40002 2.46516C10.1208 2.46516 12.3333 4.6764 12.3333 7.39534C12.3333 10.1143 10.1208 12.3255 7.40002 12.3255Z" transform="translate(51.8001 38.2094)" fill="black"/>
<path d="M26.9372 17.8216L15.8372 0.565773C15.6103 0.213195 15.2193 0 14.7999 0H1.23329C0.551242 0 0 0.552195 0 1.23251V32.0464C0 32.728 0.551242 33.2789 1.23329 33.2789H6.16658V30.8137H2.46658V2.46516H14.1265L24.6666 18.8507V30.814H18.4999V33.279H25.8999C26.582 33.279 27.1332 32.7281 27.1332 32.0465V18.4883C27.1333 18.2529 27.0656 18.0199 26.9372 17.8216Z" transform="translate(46.8668 13.5582)" fill="black"/>
<path d="M2.46658 11.093V2.46516H12.3333V0H1.23329C0.551242 0 0 0.552193 0 1.23251V12.3255C0 13.0071 0.551242 13.558 1.23329 13.558H19.7333V11.0929H2.46658V11.093Z" transform="translate(51.8002 18.4883)" fill="black"/>
<path d="M48.1001 0H1.23329C0.552544 0 0 0.552194 0 1.23251V40.6743C0 41.356 0.552544 41.9068 1.23329 41.9068H11.1V39.4417H2.46672V2.46502H46.8668V39.4417H23.4333V41.9068H48.1001C48.7821 41.9068 49.3334 41.356 49.3334 40.6743V1.23251C49.3334 0.552194 48.7821 0 48.1001 0Z" transform="translate(0 4.9303)" fill="black"/>
<path d="M7.40001 0H0V2.46516H7.40001V0Z" transform="translate(1.23331 39.4418)" fill="black"/>
<path d="M20.9668 0H0V2.46516H20.9668V0Z" transform="translate(25.9001 39.4418)" fill="black"/>
<path d="M4.93329 0H0V2.46516H4.93329V0Z" transform="translate(67.8334 39.4418)" fill="black"/>
<path d="M43.1668 0H0V2.46516H43.1668V0Z" transform="translate(4.93329 9.86047)" fill="black"/>
<path d="M2.46672 0H0V2.46516H2.46672V0Z" transform="translate(16.0333 44.372)" fill="black"/>
<path d="M2.46672 0H0V2.46516H2.46672V0Z" transform="translate(57.9669 44.372)" fill="black"/>
<path d="M17.2668 0H0V2.46516H17.2668V0Z" transform="translate(4.93329)" fill="black"/>
<path d="M2.46672 0H0V2.46516H2.46672V0Z" fill="black"/>
</svg>
